<svg width="40" height="40" viewBox="0 0 40 40" fill="none" xmlns="http://www.w3.org/2000/svg">
<path fill-rule="evenodd" clip-rule="evenodd" d="M19.999 25.305L33.2565 38.5625C33.96 39.266 34.9141 39.6612 35.909 39.6612C36.9039 39.6612 37.858 39.266 38.5615 38.5625C39.265 37.859 39.6602 36.9049 39.6602 35.91C39.6602 34.9152 39.265 33.961 38.5615 33.2575L25.299 20L38.559 6.74253C38.9072 6.3942 39.1833 5.9807 39.3717 5.52565C39.5601 5.07059 39.6569 4.5829 39.6568 4.0904C39.6567 3.5979 39.5596 3.11024 39.371 2.65528C39.1824 2.20031 38.9061 1.78695 38.5578 1.43878C38.2094 1.09061 37.7959 0.814465 37.3409 0.626102C36.8858 0.437738 36.3981 0.340848 35.9056 0.340964C35.4131 0.34108 34.9255 0.438199 34.4705 0.626778C34.0155 0.815356 33.6022 1.0917 33.254 1.44003L19.999 14.6975L6.74151 1.44003C6.39575 1.08171 5.98209 0.795834 5.52467 0.599088C5.06725 0.402341 4.57523 0.298663 4.07731 0.294103C3.57939 0.289543 3.08555 0.384192 2.6246 0.572528C2.16365 0.760864 1.74483 1.03911 1.39257 1.39105C1.04031 1.74298 0.761661 2.16154 0.57289 2.62231C0.38412 3.08308 0.289005 3.57683 0.293095 4.07475C0.297186 4.57267 0.400399 5.06479 0.596714 5.5224C0.793029 5.98001 1.07851 6.39394 1.43651 6.74003L14.699 20L1.43901 33.26C1.08101 33.6061 0.79553 34.0201 0.599215 34.4777C0.4029 34.9353 0.299686 35.4274 0.295595 35.9253C0.291505 36.4232 0.386619 36.917 0.57539 37.3778C0.764161 37.8385 1.04281 38.2571 1.39507 38.609C1.74733 38.9609 2.16615 39.2392 2.6271 39.4275C3.08805 39.6159 3.58189 39.7105 4.07981 39.706C4.57773 39.7014 5.06975 39.5977 5.52717 39.401C5.98459 39.2042 6.39825 38.9184 6.74401 38.56L19.999 25.305Z" fill="white"/>
</svg>
