<svg width="51" height="51" viewBox="0 0 51 51" fill="none" xmlns="http://www.w3.org/2000/svg">
<path d="M33.6027 35.8051L37.9427 31.4651C38.5272 30.8878 39.2668 30.4926 40.0716 30.3275C40.8764 30.1624 41.7118 30.2345 42.4764 30.5351L47.7658 32.647C48.5385 32.9606 49.201 33.4959 49.67 34.1855C50.1389 34.8751 50.3932 35.6881 50.4008 36.522V46.2095C50.3963 46.7767 50.2771 47.3372 50.0502 47.8572C49.8234 48.3771 49.4937 48.8458 49.081 49.235C48.6683 49.6242 48.1811 49.9258 47.6487 50.1217C47.1164 50.3177 46.5498 50.4039 45.9833 50.3751C8.91893 48.0695 1.44018 16.682 0.0258026 4.66945C-0.0398537 4.07956 0.0201347 3.48244 0.201821 2.91739C0.383507 2.35234 0.682774 1.83216 1.07993 1.39108C1.47709 0.949996 1.96314 0.598001 2.50611 0.358253C3.04907 0.118505 3.63665 -0.00356337 4.23018 7.91837e-05H13.5883C14.4234 0.00255102 15.2386 0.254797 15.9292 0.724374C16.6197 1.19395 17.154 1.85938 17.4633 2.63508L19.5752 7.92446C19.8857 8.68603 19.9649 9.5222 19.8029 10.3285C19.641 11.1349 19.245 11.8756 18.6646 12.4582L14.3246 16.7982C14.3246 16.7982 16.8239 33.7126 33.6027 35.8051Z" fill="white"/>
</svg>
