<svg width="30" height="31" viewBox="0 0 30 31" fill="none" xmlns="http://www.w3.org/2000/svg">
<path d="M27.1734 20.7108C26.9645 22.2987 26.1847 23.7563 24.9796 24.8113C23.7745 25.8662 22.2266 26.4465 20.625 26.4436C11.3203 26.4436 3.75001 18.8733 3.75001 9.56861C3.74714 7.967 4.32738 6.41911 5.38235 5.21403C6.43733 4.00896 7.8949 3.22913 9.48282 3.02017C9.88437 2.97114 10.291 3.05329 10.642 3.25436C10.993 3.45542 11.2696 3.76462 11.4305 4.1358L13.9055 9.66119V9.67525C14.0286 9.95938 14.0795 10.2696 14.0535 10.5782C14.0275 10.8867 13.9256 11.1841 13.7567 11.4436C13.7356 11.4753 13.7133 11.5045 13.6899 11.5338L11.25 14.426C12.1277 16.2096 13.9934 18.0588 15.8004 18.9389L18.6527 16.512C18.6807 16.4884 18.7101 16.4665 18.7406 16.4463C19 16.2734 19.2983 16.1678 19.6087 16.1392C19.9191 16.1105 20.2318 16.1597 20.5184 16.2823L20.5336 16.2893L26.0543 18.7631C26.4261 18.9234 26.7361 19.1998 26.9378 19.5508C27.1395 19.9019 27.2222 20.3088 27.1734 20.7108Z" fill="#FF851B"/>
</svg>
