<svg width="30" height="31" viewBox="0 0 30 31" fill="none" xmlns="http://www.w3.org/2000/svg">
<path d="M16.25 14.6934V10.1934C16.25 9.83919 16.13 9.54253 15.89 9.30336C15.65 9.06419 15.3533 8.94419 15 8.94336C14.6467 8.94253 14.35 9.06253 14.11 9.30336C13.87 9.54419 13.75 9.84086 13.75 10.1934V15.1621C13.75 15.3288 13.7813 15.4904 13.8438 15.6471C13.9063 15.8038 14 15.9442 14.125 16.0684L18.25 20.1934C18.4792 20.4225 18.7708 20.5371 19.125 20.5371C19.4792 20.5371 19.7708 20.4225 20 20.1934C20.2292 19.9642 20.3438 19.6725 20.3438 19.3184C20.3438 18.9642 20.2292 18.6725 20 18.4434L16.25 14.6934ZM15 27.6934C13.2708 27.6934 11.6458 27.365 10.125 26.7084C8.60417 26.0517 7.28125 25.1613 6.15625 24.0371C5.03125 22.9129 4.14084 21.59 3.485 20.0684C2.82917 18.5467 2.50083 16.9217 2.5 15.1934C2.49917 13.465 2.8275 11.84 3.485 10.3184C4.1425 8.79669 5.03292 7.47378 6.15625 6.34961C7.27958 5.22544 8.6025 4.33503 10.125 3.67836C11.6475 3.02169 13.2725 2.69336 15 2.69336C16.7275 2.69336 18.3525 3.02169 19.875 3.67836C21.3975 4.33503 22.7204 5.22544 23.8438 6.34961C24.9671 7.47378 25.8579 8.79669 26.5163 10.3184C27.1746 11.84 27.5025 13.465 27.5 15.1934C27.4975 16.9217 27.1692 18.5467 26.515 20.0684C25.8608 21.59 24.9704 22.9129 23.8438 24.0371C22.7171 25.1613 21.3942 26.0521 19.875 26.7096C18.3558 27.3671 16.7308 27.695 15 27.6934Z" fill="#FF851B"/>
</svg>
