<svg width="30" height="31" viewBox="0 0 30 31" fill="none" xmlns="http://www.w3.org/2000/svg">
<path d="M17.1675 27.4634C20.4356 24.5871 26.25 18.7109 26.25 13.3184C26.25 10.3347 25.0647 7.47319 22.955 5.36341C20.8452 3.25362 17.9837 2.06836 15 2.06836C12.0163 2.06836 9.15483 3.25362 7.04505 5.36341C4.93526 7.47319 3.75 10.3347 3.75 13.3184C3.75 18.7109 9.5625 24.5871 12.8325 27.4634C13.429 27.9957 14.2005 28.29 15 28.29C15.7995 28.29 16.571 27.9957 17.1675 27.4634ZM11.25 13.3184C11.25 12.3238 11.6451 11.37 12.3483 10.6667C13.0516 9.96345 14.0054 9.56836 15 9.56836C15.9946 9.56836 16.9484 9.96345 17.6516 10.6667C18.3549 11.37 18.75 12.3238 18.75 13.3184C18.75 14.3129 18.3549 15.2667 17.6516 15.97C16.9484 16.6733 15.9946 17.0684 15 17.0684C14.0054 17.0684 13.0516 16.6733 12.3483 15.97C11.6451 15.2667 11.25 14.3129 11.25 13.3184Z" fill="#FF851B"/>
</svg>
