<svg width="30" height="31" viewBox="0 0 30 31" fill="none" xmlns="http://www.w3.org/2000/svg">
<path d="M25 5.19336H5C3.625 5.19336 2.5125 6.31836 2.5125 7.69336L2.5 22.6934C2.5 24.0684 3.625 25.1934 5 25.1934H25C26.375 25.1934 27.5 24.0684 27.5 22.6934V7.69336C27.5 6.31836 26.375 5.19336 25 5.19336ZM24.5 10.5059L15.6625 16.0309C15.2625 16.2809 14.7375 16.2809 14.3375 16.0309L5.5 10.5059C5.37466 10.4355 5.2649 10.3404 5.17736 10.2264C5.08982 10.1124 5.02633 9.98183 4.99072 9.84257C4.95511 9.70331 4.94813 9.55828 4.9702 9.41624C4.99226 9.27421 5.04292 9.13813 5.1191 9.01624C5.19528 8.89434 5.29541 8.78918 5.41341 8.7071C5.53141 8.62503 5.66484 8.56775 5.80562 8.53873C5.9464 8.50972 6.0916 8.50957 6.23244 8.53829C6.37328 8.56702 6.50683 8.62403 6.625 8.70586L15 13.9434L23.375 8.70586C23.4932 8.62403 23.6267 8.56702 23.7676 8.53829C23.9084 8.50957 24.0536 8.50972 24.1944 8.53873C24.3352 8.56775 24.4686 8.62503 24.5866 8.7071C24.7046 8.78918 24.8047 8.89434 24.8809 9.01624C24.9571 9.13813 25.0077 9.27421 25.0298 9.41624C25.0519 9.55828 25.0449 9.70331 25.0093 9.84257C24.9737 9.98183 24.9102 10.1124 24.8226 10.2264C24.7351 10.3404 24.6253 10.4355 24.5 10.5059Z" fill="#FF851B"/>
</svg>
