<svg width="250" height="51" viewBox="0 0 250 51" fill="none" xmlns="http://www.w3.org/2000/svg">
<path d="M0 50.7382V13.9275H27.2942V20.1547H7.43245V28.3153H25.9132V34.5174H7.43245V44.5361H27.9973V50.7382H0Z" fill="white"/>
<path d="M43.6908 50.7382L30.5333 13.9275H38.5935L47.9092 41.1714L56.9236 13.9275H64.808L51.6254 50.7382H43.6908Z" fill="white"/>
<path d="M68.5996 50.7382V13.9275H95.8937V20.1547H76.032V28.3153H94.5127V34.5174H76.032V44.5361H96.5968V50.7382H68.5996Z" fill="white"/>
<path d="M102.975 50.7382V13.9275H110.206L125.272 38.5098V13.9275H132.177V50.7382H124.72L109.88 26.7334V50.7382H102.975Z" fill="white"/>
<path d="M148.348 50.7382V20.1547H137.425V13.9275H166.678V20.1547H155.78V50.7382H148.348Z" fill="white"/>
<path d="M173.416 50.7382V21.8119C173.416 21.8119 175.793 21.8119 177.316 21.8119C178.695 21.8119 180.848 21.8119 180.848 21.8119V50.7382H173.416Z" fill="white"/>
<path d="M188.004 50.7382V13.9275H213.239V20.1547H195.437V28.8677H210.804V35.0949H195.437V50.7382H188.004Z" fill="white"/>
<path d="M229.059 50.7382V35.2456L215.575 13.9275H224.288L232.951 28.4911L241.438 13.9275H250L236.466 35.2958V50.7382H229.059Z" fill="white"/>
<path d="M179.092 14.7911C178.861 14.126 179.624 13.6146 180.076 14.0689L180.138 14.1414L183.047 17.9389C183.169 18.0999 183.258 18.2869 183.308 18.4875C183.359 18.6881 183.369 18.8979 183.339 19.1031C183.309 19.3084 183.239 19.5046 183.134 19.6789C183.029 19.8531 182.89 20.0015 182.728 20.1145C182.566 20.2274 182.384 20.3022 182.193 20.3342C182.002 20.3661 181.807 20.3544 181.62 20.2998C181.434 20.2452 181.26 20.1489 181.111 20.0173C180.961 19.8857 180.839 19.7216 180.753 19.5358L180.697 19.3975L179.092 14.7911ZM179.747 10.9651L179.834 10.9936L184.118 12.7201C184.299 12.7933 184.463 12.9067 184.6 13.0529C184.738 13.1991 184.845 13.3747 184.915 13.5684C184.984 13.762 185.016 13.9693 185.006 14.1768C184.996 14.3843 184.946 14.5873 184.859 14.7725C184.771 14.9578 184.649 15.1211 184.499 15.2519C184.349 15.3827 184.175 15.4781 183.988 15.5317C183.801 15.5853 183.606 15.5961 183.416 15.5632C183.225 15.5304 183.043 15.4546 182.881 15.341L182.762 15.2455L179.231 12.1186C178.721 11.6686 179.144 10.8147 179.747 10.9662V10.9651ZM188.029 10.1792C188.029 11.0452 187.346 11.7147 186.56 11.6543L186.428 11.6379L181.917 10.829C181.272 10.7137 181.236 9.76655 181.809 9.55802L181.917 9.52948L186.428 8.72059C186.625 8.68517 186.827 8.69639 187.02 8.75346C187.212 8.81052 187.391 8.91207 187.544 9.05103C187.696 9.18998 187.818 9.363 187.902 9.55804C187.986 9.75307 188.03 9.96543 188.029 10.1803V10.1792ZM184.825 5.51465C185.226 6.26098 184.948 7.20597 184.246 7.57804L184.117 7.63841L179.833 9.36485C179.216 9.61399 178.741 8.79303 179.163 8.30681L179.229 8.23986L182.761 5.11185C182.915 4.97534 183.095 4.8766 183.288 4.8225C183.481 4.76839 183.683 4.76023 183.88 4.79856C184.076 4.8369 184.263 4.92082 184.426 5.04449C184.589 5.16815 184.725 5.3286 184.825 5.51465ZM182.672 0.19922C183.364 0.629459 183.563 1.59091 183.134 2.29115L183.046 2.41956L180.138 6.21708C179.72 6.76585 178.926 6.31037 179.067 5.66172L179.092 5.56843L180.697 0.959821C180.768 0.758737 180.877 0.576474 181.02 0.425707C181.162 0.27494 181.333 0.159289 181.521 0.0867971C181.709 0.0143052 181.909 -0.0132876 182.108 0.00593769C182.307 0.025163 182.499 0.0907447 182.672 0.198122V0.19922ZM174.491 14.1414C174.91 13.5926 175.703 14.0481 175.563 14.6967L175.537 14.79L173.932 19.3986C173.864 19.593 173.758 19.7698 173.622 19.9174C173.487 20.065 173.323 20.1802 173.143 20.2553C172.963 20.3305 172.77 20.364 172.577 20.3537C172.385 20.3434 172.196 20.2895 172.024 20.1955C171.851 20.1015 171.7 19.9695 171.578 19.8081C171.456 19.6467 171.368 19.4596 171.318 19.2589C171.268 19.0582 171.258 18.8484 171.289 18.6433C171.319 18.4382 171.389 18.2423 171.495 18.0684L171.583 17.94L174.491 14.1414ZM175.466 12.0516L175.398 12.1186L171.868 15.2466C171.718 15.378 171.544 15.4739 171.358 15.5281C171.171 15.5824 170.976 15.5937 170.785 15.5614C170.594 15.5291 170.412 15.4539 170.25 15.3407C170.088 15.2274 169.95 15.0787 169.845 14.9043C169.74 14.7298 169.67 14.5335 169.641 14.3282C169.611 14.1228 169.622 13.9131 169.673 13.7126C169.723 13.512 169.813 13.3253 169.935 13.1645C170.058 13.0037 170.21 12.8724 170.383 12.7793L170.511 12.7201L174.795 10.9936C175.413 10.7445 175.887 11.5654 175.466 12.0516ZM168.069 8.70413L168.201 8.72059L172.712 9.52948C173.357 9.64582 173.393 10.5919 172.821 10.8004L172.712 10.829L168.201 11.6379C168.01 11.6719 167.814 11.662 167.627 11.6088C167.439 11.5557 167.264 11.4605 167.114 11.3295C166.963 11.1986 166.839 11.0348 166.752 10.8489C166.664 10.663 166.614 10.4593 166.604 10.2511C166.595 10.0428 166.626 9.83481 166.697 9.64066C166.768 9.4465 166.876 9.27061 167.014 9.12452C167.152 8.97843 167.318 8.86545 167.499 8.793C167.681 8.72055 167.876 8.69026 168.069 8.70413ZM171.748 5.01746L171.868 5.11295L175.398 8.23986C175.909 8.68986 175.485 9.54375 174.882 9.39229L174.795 9.36485L170.511 7.63841C170.331 7.56513 170.166 7.45171 170.029 7.30554C169.892 7.15938 169.785 6.98374 169.715 6.79009C169.645 6.59644 169.614 6.38911 169.623 6.18163C169.633 5.97416 169.683 5.77118 169.771 5.58594C169.858 5.4007 169.981 5.23735 170.131 5.10654C170.281 4.97573 170.455 4.8804 170.641 4.82677C170.828 4.77313 171.023 4.76239 171.214 4.79525C171.404 4.8281 171.586 4.90382 171.748 5.01746ZM173.877 0.822627L173.932 0.960919L175.537 5.56843C175.769 6.23354 175.005 6.74281 174.553 6.28952L174.491 6.21818L171.583 2.41956C171.461 2.25852 171.372 2.07161 171.321 1.871C171.271 1.67039 171.26 1.4606 171.29 1.25532C171.32 1.05003 171.39 0.853863 171.495 0.679608C171.601 0.505353 171.739 0.356926 171.901 0.24401C172.063 0.131094 172.246 0.0562254 172.437 0.024289C172.628 -0.00764729 172.823 0.00406576 173.009 0.0586641C173.196 0.113262 173.369 0.209519 173.519 0.341156C173.668 0.472792 173.79 0.63685 173.877 0.822627ZM177.315 0.850066C176.466 0.850066 175.819 1.66993 175.959 2.57212L176.711 7.42438C176.825 8.15864 177.805 8.15864 177.919 7.42438L178.671 2.57212C178.704 2.36026 178.693 2.14322 178.64 1.93612C178.587 1.72902 178.493 1.53683 178.364 1.37292C178.235 1.20902 178.074 1.07734 177.893 0.987038C177.712 0.896741 177.514 0.849999 177.315 0.850066ZM177.919 12.9341C177.805 12.1998 176.825 12.1998 176.711 12.9341L175.959 17.7863C175.926 17.998 175.937 18.2147 175.99 18.4215C176.043 18.6282 176.138 18.8201 176.267 18.9837C176.396 19.1472 176.556 19.2787 176.737 19.3688C176.918 19.4589 177.115 19.5056 177.315 19.5056C177.514 19.5056 177.711 19.4589 177.892 19.3688C178.073 19.2787 178.234 19.1472 178.363 18.9837C178.492 18.8201 178.586 18.6282 178.639 18.4215C178.693 18.2147 178.703 17.998 178.671 17.7863L177.919 12.9341Z" fill="#FFCE31"/>
<path d="M178.387 10.7134C178.387 11.3051 177.908 11.7848 177.316 11.7848C176.724 11.7848 176.245 11.3051 176.245 10.7134C176.245 10.1218 176.724 9.6421 177.316 9.6421C177.908 9.6421 178.387 10.1218 178.387 10.7134Z" fill="#FF851B"/>
</svg>
