<svg width="63" height="63" viewBox="0 0 63 63" fill="none" xmlns="http://www.w3.org/2000/svg">
<path d="M29.5625 10.3372V4.52466C29.5625 4.0108 29.7666 3.51799 30.13 3.15464C30.4933 2.79129 30.9861 2.58716 31.5 2.58716C32.0139 2.58716 32.5067 2.79129 32.87 3.15464C33.2334 3.51799 33.4375 4.0108 33.4375 4.52466V10.3372C33.4375 10.851 33.2334 11.3438 32.87 11.7072C32.5067 12.0705 32.0139 12.2747 31.5 12.2747C30.9861 12.2747 30.4933 12.0705 30.13 11.7072C29.7666 11.3438 29.5625 10.851 29.5625 10.3372ZM31.5 16.1497C28.4344 16.1497 25.4376 17.0587 22.8887 18.7619C20.3397 20.465 18.353 22.8858 17.1799 25.7181C16.0067 28.5503 15.6998 31.6669 16.2978 34.6736C16.8959 37.6803 18.3721 40.4421 20.5398 42.6098C22.7076 44.7775 25.4694 46.2538 28.4761 46.8518C31.4828 47.4499 34.5993 47.143 37.4316 45.9698C40.2639 44.7966 42.6846 42.81 44.3878 40.261C46.0909 37.712 47 34.7153 47 31.6497C46.9955 27.5402 45.361 23.6003 42.4552 20.6945C39.5494 17.7886 35.6095 16.1541 31.5 16.1497ZM14.6292 17.5204C14.9928 17.884 15.4859 18.0882 16 18.0882C16.5141 18.0882 17.0072 17.884 17.3708 17.5204C17.7343 17.1569 17.9386 16.6638 17.9386 16.1497C17.9386 15.6355 17.7343 15.1424 17.3708 14.7789L13.4958 10.9039C13.1322 10.5403 12.6391 10.3361 12.125 10.3361C11.6109 10.3361 11.1178 10.5403 10.7542 10.9039C10.3907 11.2674 10.1864 11.7605 10.1864 12.2747C10.1864 12.7888 10.3907 13.2819 10.7542 13.6454L14.6292 17.5204ZM14.6292 45.7789L10.7542 49.6539C10.3907 50.0174 10.1864 50.5105 10.1864 51.0247C10.1864 51.5388 10.3907 52.0319 10.7542 52.3954C11.1178 52.759 11.6109 52.9632 12.125 52.9632C12.6391 52.9632 13.1322 52.759 13.4958 52.3954L17.3708 48.5204C17.5508 48.3404 17.6936 48.1267 17.791 47.8915C17.8884 47.6563 17.9386 47.4042 17.9386 47.1497C17.9386 46.8951 17.8884 46.643 17.791 46.4078C17.6936 46.1726 17.5508 45.9589 17.3708 45.7789C17.1908 45.5989 16.9771 45.4561 16.7419 45.3586C16.5067 45.2612 16.2546 45.2111 16 45.2111C15.7454 45.2111 15.4933 45.2612 15.2581 45.3586C15.0229 45.4561 14.8092 45.5989 14.6292 45.7789ZM47 18.0872C47.2545 18.0874 47.5066 18.0374 47.7418 17.9402C47.977 17.8429 48.1907 17.7003 48.3708 17.5204L52.2458 13.6454C52.6093 13.2819 52.8136 12.7888 52.8136 12.2747C52.8136 11.7605 52.6093 11.2674 52.2458 10.9039C51.8822 10.5403 51.3891 10.3361 50.875 10.3361C50.3609 10.3361 49.8678 10.5403 49.5042 10.9039L45.6292 14.7789C45.3579 15.0498 45.1732 15.3952 45.0983 15.7713C45.0234 16.1473 45.0618 16.5371 45.2085 16.8913C45.3553 17.2455 45.6039 17.5482 45.9228 17.7611C46.2417 17.974 46.6166 18.0875 47 18.0872ZM48.3708 45.7789C48.0072 45.4153 47.5141 45.2111 47 45.2111C46.4859 45.2111 45.9928 45.4153 45.6292 45.7789C45.2657 46.1424 45.0614 46.6355 45.0614 47.1497C45.0614 47.6638 45.2657 48.1569 45.6292 48.5204L49.5042 52.3954C49.6842 52.5755 49.8979 52.7182 50.1331 52.8157C50.3683 52.9131 50.6204 52.9632 50.875 52.9632C51.1296 52.9632 51.3817 52.9131 51.6169 52.8157C51.8521 52.7182 52.0658 52.5755 52.2458 52.3954C52.4258 52.2154 52.5686 52.0017 52.666 51.7665C52.7634 51.5313 52.8136 51.2792 52.8136 51.0247C52.8136 50.7701 52.7634 50.518 52.666 50.2828C52.5686 50.0476 52.4258 49.8339 52.2458 49.6539L48.3708 45.7789ZM12.125 31.6497C12.125 31.1358 11.9209 30.643 11.5575 30.2796C11.1942 29.9163 10.7014 29.7122 10.1875 29.7122H4.375C3.86114 29.7122 3.36833 29.9163 3.00498 30.2796C2.64163 30.643 2.4375 31.1358 2.4375 31.6497C2.4375 32.1635 2.64163 32.6563 3.00498 33.0197C3.36833 33.383 3.86114 33.5872 4.375 33.5872H10.1875C10.7014 33.5872 11.1942 33.383 11.5575 33.0197C11.9209 32.6563 12.125 32.1635 12.125 31.6497ZM31.5 51.0247C30.9861 51.0247 30.4933 51.2288 30.13 51.5921C29.7666 51.9555 29.5625 52.4483 29.5625 52.9622V58.7747C29.5625 59.2885 29.7666 59.7813 30.13 60.1447C30.4933 60.508 30.9861 60.7122 31.5 60.7122C32.0139 60.7122 32.5067 60.508 32.87 60.1447C33.2334 59.7813 33.4375 59.2885 33.4375 58.7747V52.9622C33.4375 52.4483 33.2334 51.9555 32.87 51.5921C32.5067 51.2288 32.0139 51.0247 31.5 51.0247ZM58.625 29.7122H52.8125C52.2986 29.7122 51.8058 29.9163 51.4425 30.2796C51.0791 30.643 50.875 31.1358 50.875 31.6497C50.875 32.1635 51.0791 32.6563 51.4425 33.0197C51.8058 33.383 52.2986 33.5872 52.8125 33.5872H58.625C59.1389 33.5872 59.6317 33.383 59.995 33.0197C60.3584 32.6563 60.5625 32.1635 60.5625 31.6497C60.5625 31.1358 60.3584 30.643 59.995 30.2796C59.6317 29.9163 59.1389 29.7122 58.625 29.7122Z" fill="#FF851B"/>
</svg>
