<svg width="63" height="63" viewBox="0 0 63 63" fill="none" xmlns="http://www.w3.org/2000/svg">
<path d="M50.2284 25.7572L44.9559 7.85231C44.8378 7.45117 44.593 7.09901 44.2582 6.84845C43.9234 6.59789 43.5165 6.46237 43.0984 6.46216H19.9016C19.4835 6.46237 19.0766 6.59789 18.7418 6.84845C18.4069 7.09901 18.1622 7.45117 18.0441 7.85231L12.7716 25.7572C11.9444 28.5016 11.9011 31.4226 12.6466 34.1903C13.3922 36.9579 14.8968 39.462 16.9905 41.4195C20.4348 44.6492 24.86 46.6347 29.5625 47.0601V56.8372H21.8125C21.2986 56.8372 20.8058 57.0413 20.4425 57.4046C20.0791 57.768 19.875 58.2608 19.875 58.7747C19.875 59.2885 20.0791 59.7813 20.4425 60.1447C20.8058 60.508 21.2986 60.7122 21.8125 60.7122H41.1875C41.7013 60.7122 42.1942 60.508 42.5575 60.1447C42.9209 59.7813 43.125 59.2885 43.125 58.7747C43.125 58.2608 42.9209 57.768 42.5575 57.4046C42.1942 57.0413 41.7013 56.8372 41.1875 56.8372H33.4375V47.0601C38.14 46.6347 42.5652 44.6492 46.0094 41.4195C48.1027 39.4616 49.607 36.9576 50.3525 34.19C51.098 31.4225 51.055 28.5016 50.2284 25.7572ZM21.3499 10.3372H41.6501L46.5156 26.8519C46.5374 26.9246 46.5568 26.9972 46.5762 27.0699C41.3885 28.9299 35.5469 26.6824 32.3767 25.0767C26.276 21.9888 21.4323 21.5965 17.86 22.1874L21.3499 10.3372Z" fill="#FF851B"/>
</svg>
