<svg width="63" height="63" viewBox="0 0 63 63" fill="none" xmlns="http://www.w3.org/2000/svg">
<path d="M31.4993 45.858C34.7285 45.858 37.4737 44.7282 39.735 42.4687C41.9963 40.2091 43.1261 37.4639 43.1243 34.233C43.1226 31.0021 41.9928 28.2577 39.735 25.9999C37.4772 23.7421 34.732 22.6114 31.4993 22.608C28.2667 22.6045 25.5224 23.7352 23.2663 25.9999C21.0102 28.2646 19.8795 31.009 19.8743 34.233C19.8692 37.457 20.9998 40.2022 23.2663 42.4687C25.5327 44.7351 28.2771 45.8649 31.4993 45.858ZM31.4993 40.6913C29.691 40.6913 28.1625 40.067 26.9139 38.8184C25.6653 37.5698 25.041 36.0413 25.041 34.233C25.041 32.4247 25.6653 30.8962 26.9139 29.6476C28.1625 28.399 29.691 27.7747 31.4993 27.7747C33.3077 27.7747 34.8362 28.399 36.0848 29.6476C37.3334 30.8962 37.9577 32.4247 37.9577 34.233C37.9577 36.0413 37.3334 37.5698 36.0848 38.8184C34.8362 40.067 33.3077 40.6913 31.4993 40.6913ZM10.8327 54.8997C9.41185 54.8997 8.19596 54.3942 7.18502 53.3832C6.17407 52.3723 5.66774 51.1555 5.66602 49.733V18.733C5.66602 17.3122 6.17235 16.0963 7.18502 15.0853C8.19768 14.0744 9.41357 13.568 10.8327 13.5663H18.9702L23.7493 8.39966H39.2493L44.0285 13.5663H52.166C53.5868 13.5663 54.8036 14.0727 55.8163 15.0853C56.8289 16.098 57.3344 17.3139 57.3327 18.733V49.733C57.3327 51.1538 56.8272 52.3706 55.8163 53.3832C54.8053 54.3959 53.5886 54.9014 52.166 54.8997H10.8327Z" fill="#FF851B"/>
</svg>
