<svg width="63" height="63" viewBox="0 0 63 63" fill="none" xmlns="http://www.w3.org/2000/svg">
<g clip-path="url(#clip0_26_3848)">
<path d="M44.416 8.39941C46.3928 8.3993 48.2949 9.15459 49.7332 10.5107C51.1715 11.8669 52.0371 13.7214 52.1531 15.6947L52.166 16.1494V27.3869L53.7005 26.7049C55.2867 25.9997 57.1157 27.0924 57.3172 28.7664L57.3327 29.0661V49.7327C57.3331 51.0362 56.8408 52.2917 55.9545 53.2475C55.0682 54.2033 53.8533 54.7887 52.5535 54.8865L52.166 54.8994H10.8327C9.52919 54.8998 8.27372 54.4075 7.31793 53.5212C6.36215 52.6349 5.77669 51.4201 5.67893 50.1202L5.66602 49.7327V29.0661C5.66602 27.3301 7.40977 26.103 9.0166 26.599L9.30077 26.7049L10.8327 27.3869V16.1494C10.8326 14.1726 11.5879 12.2705 12.944 10.8322C14.3001 9.39398 16.1546 8.5283 18.128 8.41233L18.5827 8.39941H44.416ZM44.416 13.5661H18.5827C17.8975 13.5661 17.2405 13.8383 16.756 14.3227C16.2715 14.8072 15.9993 15.4643 15.9993 16.1494V29.6835L31.4994 36.5732L46.9994 29.6835V16.1494C46.9994 15.4643 46.7272 14.8072 46.2427 14.3227C45.7582 13.8383 45.1012 13.5661 44.416 13.5661ZM31.4994 21.3161C32.1578 21.3168 32.7911 21.5689 33.2699 22.0209C33.7487 22.4729 34.0368 23.0907 34.0754 23.748C34.114 24.4053 33.9001 25.0526 33.4775 25.5575C33.0549 26.0624 32.4554 26.3869 31.8016 26.4647L31.4994 26.4827H26.3327C25.6742 26.482 25.0409 26.2299 24.5621 25.7779C24.0834 25.3259 23.7952 24.7081 23.7567 24.0508C23.7181 23.3935 23.9319 22.7463 24.3545 22.2413C24.7771 21.7364 25.3766 21.4119 26.0304 21.3342L26.3327 21.3161H31.4994Z" fill="#FF851B"/>
</g>
<defs>
<clipPath id="clip0_26_3848">
<rect width="62" height="62" fill="white" transform="translate(0.5 0.649658)"/>
</clipPath>
</defs>
</svg>
