<svg width="62" height="63" viewBox="0 0 62 63" fill="none" xmlns="http://www.w3.org/2000/svg">
<path d="M22.935 5.90039L20.4768 7.13313C20.4768 11.0118 20.5736 17.7724 22.16 22.9916C29.2197 24.7111 32.7799 24.7111 39.8396 22.9916C41.4502 17.7845 41.5229 12.5121 41.535 7.13313L39.0647 5.90039C38.5318 6.59547 37.6479 7.72164 36.4248 9.11785C35.5529 10.106 34.6326 11.0989 33.7486 11.8788C33.3127 12.2687 32.8889 12.6054 32.465 12.8681C32.0291 13.1345 31.6053 13.3646 30.9998 13.3646C30.3943 13.3646 29.9705 13.1345 29.5346 12.8681C29.1107 12.6054 28.6869 12.2687 28.251 11.8788C27.367 11.0989 26.4467 10.106 25.5748 9.11785C24.3518 7.72164 23.4678 6.59547 22.935 5.90039ZM21.8936 25.1591L6.93848 55.0814C6.97238 55.2146 7.03535 55.3599 7.20004 55.5416C7.44223 55.8201 7.87574 56.1591 8.48484 56.474C9.70547 57.1279 11.5994 57.7213 13.9014 58.1935C18.5029 59.1381 24.7635 59.6224 30.9998 59.6224C37.2361 59.6224 43.4967 59.1381 48.0982 58.1935C50.399 57.7213 52.3002 57.1279 53.5111 56.474C54.1287 56.1591 54.5525 55.8201 54.7947 55.5416C54.9643 55.3599 55.0248 55.2146 55.0611 55.0814L40.1061 25.1591C33.0826 26.8423 28.917 26.8423 21.8936 25.1591Z" fill="#FF851B"/>
</svg>
