<svg width="62" height="63" viewBox="0 0 62 63" fill="none" xmlns="http://www.w3.org/2000/svg">
<path d="M31 13.5661V35.6536C28.5716 34.2586 25.575 33.7161 22.3975 34.8269C18.9358 36.0669 16.275 39.1411 15.655 42.7577C15.3683 44.3851 15.4755 46.0574 15.9674 47.6349C16.4593 49.2124 17.3217 50.6492 18.4825 51.8252C19.6433 53.0011 21.0688 53.8821 22.6398 54.3945C24.2107 54.9069 25.8815 55.0357 27.5125 54.7702C32.5758 53.9694 36.1666 49.3194 36.1666 44.1786V18.7327H41.3333C44.175 18.7327 46.5 16.4077 46.5 13.5661C46.5 10.7244 44.175 8.39941 41.3333 8.39941H36.1666C33.325 8.39941 31 10.7244 31 13.5661Z" fill="#FF851B"/>
</svg>
