<svg width="62" height="63" viewBox="0 0 62 63" fill="none" xmlns="http://www.w3.org/2000/svg">
<path d="M39.3893 42.2672L43.7293 37.9272C44.3138 37.3499 45.0534 36.9548 45.8582 36.7897C46.663 36.6246 47.4984 36.6967 48.263 36.9972L53.5524 39.1091C54.3251 39.4228 54.9877 39.9581 55.4566 40.6477C55.9255 41.3373 56.1798 42.1502 56.1874 42.9841V52.6716C56.1829 53.2389 56.0637 53.7994 55.8369 54.3193C55.6101 54.8393 55.2804 55.308 54.8676 55.6971C54.4549 56.0863 53.9677 56.388 53.4353 56.5839C52.903 56.7798 52.3365 56.866 51.7699 56.8372C14.7055 54.5316 7.2268 23.1441 5.81242 11.1316C5.74677 10.5417 5.80676 9.9446 5.98844 9.37955C6.17013 8.8145 6.46939 8.29432 6.86655 7.85324C7.26371 7.41215 7.74976 7.06016 8.29273 6.82041C8.83569 6.58066 9.42327 6.45859 10.0168 6.46224H19.3749C20.21 6.46471 21.0252 6.71696 21.7158 7.18653C22.4064 7.65611 22.9406 8.32154 23.2499 9.09724L25.3618 14.3866C25.6723 15.1482 25.7515 15.9844 25.5896 16.7907C25.4276 17.597 25.0316 18.3377 24.4512 18.9204L20.1112 23.2604C20.1112 23.2604 22.6105 40.1747 39.3893 42.2672Z" fill="#001F3F"/>
</svg>
