<svg width="70" height="70" viewBox="0 0 70 70" fill="none" xmlns="http://www.w3.org/2000/svg">
<path d="M62.8431 23.1569C62.0227 22.3367 60.9101 21.8759 59.75 21.8759C58.5899 21.8759 57.4773 22.3367 56.6568 23.1569L35.0006 44.8131L13.3443 23.1568C12.5192 22.3599 11.4141 21.9189 10.267 21.9289C9.11985 21.9389 8.02254 22.399 7.21138 23.2101C6.40022 24.0213 5.94011 25.1186 5.93014 26.2657C5.92018 27.4128 6.36115 28.518 7.15809 29.3431L31.9075 54.0925C32.7279 54.9127 33.8405 55.3734 35.0006 55.3734C36.1607 55.3734 37.2733 54.9127 38.0937 54.0925L62.8431 29.3431C63.6633 28.5227 64.124 27.4101 64.124 26.25C64.124 25.0899 63.6633 23.9773 62.8431 23.1569Z" fill="white"/>
</svg>
