<svg width="19" height="20" viewBox="0 0 19 20" fill="none" xmlns="http://www.w3.org/2000/svg">
<path d="M9.49989 1.08374C4.61578 1.08374 0.651855 5.04766 0.651855 9.93178C0.651855 14.8159 4.61578 18.7798 9.49989 18.7798C14.384 18.7798 18.3479 14.8159 18.3479 9.93178C18.3479 5.04766 14.384 1.08374 9.49989 1.08374ZM13.6054 7.10041C13.4727 8.4984 12.8975 11.896 12.6056 13.4621C12.4817 14.1257 12.2339 14.347 12.0039 14.3735C11.4907 14.4177 11.1014 14.0373 10.6059 13.7099C9.82727 13.1967 9.38487 12.8782 8.63279 12.3827C7.75683 11.8076 8.3231 11.489 8.82744 10.9758C8.96016 10.8431 11.2253 8.78153 11.2695 8.59573C11.2756 8.56758 11.2748 8.53837 11.2671 8.51061C11.2594 8.48286 11.245 8.4574 11.2253 8.43646C11.1722 8.39222 11.1014 8.40992 11.0395 8.41876C10.9598 8.43646 9.7211 9.25933 7.30558 10.8874C6.95166 11.1263 6.63313 11.2501 6.34999 11.2413C6.03146 11.2324 5.4298 11.0643 4.97855 10.9139C4.42112 10.7369 3.98757 10.6396 4.02296 10.3299C4.04065 10.1707 4.26186 10.0114 4.67771 9.8433C7.26134 8.7196 8.97786 7.97636 9.83612 7.62244C12.2959 6.59607 12.8002 6.41911 13.1364 6.41911C13.2072 6.41911 13.3753 6.4368 13.4815 6.52528C13.57 6.59607 13.5965 6.6934 13.6054 6.76418C13.5965 6.81727 13.6142 6.97653 13.6054 7.10041Z" fill="white"/>
</svg>
