<svg width="48" height="48" viewBox="0 0 48 48" fill="none" xmlns="http://www.w3.org/2000/svg">
<path d="M5.00401 42.2309C5.00544 42.3333 5.02704 42.4345 5.06757 42.5286C5.1081 42.6226 5.16677 42.7078 5.24022 42.7792C5.31368 42.8506 5.40048 42.9069 5.49567 42.9447C5.59086 42.9826 5.69258 43.0013 5.79501 42.9999H42.202C42.3045 43.0015 42.4063 42.9828 42.5017 42.945C42.597 42.9072 42.6839 42.851 42.7574 42.7796C42.831 42.7082 42.8898 42.6229 42.9304 42.5288C42.9709 42.4346 42.9926 42.3334 42.994 42.2309V41.3129C43.012 41.0359 43.049 39.6559 42.139 38.1289C41.565 37.1659 40.732 36.3349 39.663 35.6569C38.37 34.8369 36.725 34.2439 34.735 33.8869C33.7248 33.7447 32.7228 33.5498 31.733 33.3029C29.101 32.6309 28.871 32.0359 28.869 32.0299C28.8538 31.9711 28.8317 31.9144 28.803 31.8609C28.781 31.7509 28.728 31.3329 28.83 30.2139C29.088 27.3709 30.613 25.6909 31.838 24.3409C32.224 23.9159 32.589 23.5129 32.87 23.1189C34.083 21.4189 34.195 19.4839 34.2 19.3639C34.2046 19.1513 34.1752 18.9393 34.113 18.7359C33.993 18.3659 33.77 18.1359 33.606 17.9659C33.5672 17.927 33.5295 17.887 33.493 17.8459C33.481 17.8319 33.449 17.7939 33.478 17.6029C33.5761 16.9876 33.6438 16.3678 33.681 15.7459C33.737 14.7439 33.78 13.2459 33.521 11.7869C33.483 11.5082 33.4255 11.2325 33.349 10.9619C33.076 9.95789 32.638 9.09989 32.029 8.39189C31.924 8.27689 29.376 5.59189 21.979 5.04189C20.956 4.96589 19.945 5.00689 18.949 5.05789C18.6545 5.06444 18.3613 5.10062 18.074 5.16589C17.31 5.36289 17.106 5.84689 17.053 6.11789C16.964 6.56789 17.12 6.91589 17.223 7.14789C17.238 7.18089 17.257 7.22189 17.224 7.32989C17.053 7.59589 16.782 7.83589 16.507 8.06289C16.427 8.12989 14.573 9.72989 14.471 11.8189C14.196 13.4079 14.216 15.8829 14.541 17.5939C14.561 17.6889 14.588 17.8289 14.543 17.9239C14.193 18.2369 13.797 18.5919 13.798 19.4019C13.802 19.4839 13.915 21.4179 15.128 23.1189C15.408 23.5129 15.773 23.9149 16.158 24.3399L16.16 24.3409C17.385 25.6909 18.91 27.3709 19.168 30.2129C19.269 31.3329 19.216 31.7499 19.195 31.8609C19.166 31.9143 19.1435 31.9711 19.128 32.0299C19.127 32.0359 18.898 32.6289 16.278 33.2999C14.766 33.6869 13.278 33.8849 13.233 33.8899C11.299 34.2169 9.66401 34.7959 8.37301 35.6109C7.30801 36.2839 6.47301 37.1179 5.89301 38.0879C4.96501 39.6379 4.99001 41.0499 5.00301 41.3079L5.00401 42.2309Z" fill="black" stroke="black" stroke-width="4" stroke-linejoin="round"/>
</svg>
