<svg width="20" height="20" viewBox="0 0 20 20" fill="none" xmlns="http://www.w3.org/2000/svg">
<path d="M7.1517 1.61157H13.7954C16.3263 1.61157 18.3827 3.66795 18.3827 6.19888V12.8426C18.3827 14.0592 17.8994 15.226 17.0391 16.0863C16.1788 16.9466 15.012 17.4299 13.7954 17.4299H7.1517C4.62077 17.4299 2.56439 15.3735 2.56439 12.8426V6.19888C2.56439 4.98225 3.0477 3.81545 3.90798 2.95516C4.76827 2.09488 5.93507 1.61157 7.1517 1.61157ZM6.99352 3.1934C6.23837 3.1934 5.51415 3.49338 4.98018 4.02736C4.4462 4.56133 4.14622 5.28555 4.14622 6.0407V13.0007C4.14622 14.5747 5.41959 15.848 6.99352 15.848H13.9536C14.7087 15.848 15.4329 15.5481 15.9669 15.0141C16.5009 14.4801 16.8009 13.7559 16.8009 13.0007V6.0407C16.8009 4.46677 15.5275 3.1934 13.9536 3.1934H6.99352ZM14.6258 4.37977C14.888 4.37977 15.1395 4.48393 15.3249 4.66934C15.5103 4.85475 15.6145 5.10621 15.6145 5.36842C15.6145 5.63062 15.5103 5.88209 15.3249 6.06749C15.1395 6.2529 14.888 6.35706 14.6258 6.35706C14.3636 6.35706 14.1122 6.2529 13.9268 6.06749C13.7414 5.88209 13.6372 5.63062 13.6372 5.36842C13.6372 5.10621 13.7414 4.85475 13.9268 4.66934C14.1122 4.48393 14.3636 4.37977 14.6258 4.37977ZM10.4735 5.56615C11.5224 5.56615 12.5282 5.98279 13.2698 6.72441C14.0115 7.46604 14.4281 8.4719 14.4281 9.52072C14.4281 10.5695 14.0115 11.5754 13.2698 12.317C12.5282 13.0587 11.5224 13.4753 10.4735 13.4753C9.42472 13.4753 8.41886 13.0587 7.67723 12.317C6.93561 11.5754 6.51897 10.5695 6.51897 9.52072C6.51897 8.4719 6.93561 7.46604 7.67723 6.72441C8.41886 5.98279 9.42472 5.56615 10.4735 5.56615ZM10.4735 7.14798C9.84425 7.14798 9.24073 7.39796 8.79576 7.84294C8.35078 8.28791 8.1008 8.89143 8.1008 9.52072C8.1008 10.15 8.35078 10.7535 8.79576 11.1985C9.24073 11.6435 9.84425 11.8935 10.4735 11.8935C11.1028 11.8935 11.7063 11.6435 12.1513 11.1985C12.5963 10.7535 12.8463 10.15 12.8463 9.52072C12.8463 8.89143 12.5963 8.28791 12.1513 7.84294C11.7063 7.39796 11.1028 7.14798 10.4735 7.14798Z" fill="white"/>
</svg>
