<svg width="19" height="20" viewBox="0 0 19 20" fill="none" xmlns="http://www.w3.org/2000/svg">
<path d="M7.62718 12.1488L12.2575 9.47225L7.62718 6.79573V12.1488ZM17.9407 5.16306C18.0567 5.58238 18.137 6.14445 18.1905 6.85819C18.2529 7.57192 18.2797 8.18752 18.2797 8.72282L18.3332 9.47225C18.3332 11.4261 18.1905 12.8625 17.9407 13.7814C17.7176 14.5844 17.2002 15.1018 16.3972 15.3249C15.9779 15.4409 15.2106 15.5212 14.033 15.5747C12.8731 15.6371 11.8115 15.6639 10.8301 15.6639L9.41152 15.7174C5.67332 15.7174 3.34476 15.5747 2.42582 15.3249C1.62286 15.1018 1.10541 14.5844 0.882363 13.7814C0.76638 13.3621 0.686085 12.8 0.632555 12.0863C0.570103 11.3726 0.543337 10.757 0.543337 10.2217L0.489807 9.47225C0.489807 7.51839 0.632555 6.082 0.882363 5.16306C1.10541 4.36011 1.62286 3.84265 2.42582 3.61961C2.84514 3.50362 3.61241 3.42333 4.79007 3.3698C5.9499 3.30735 7.01158 3.28058 7.99297 3.28058L9.41152 3.22705C13.1497 3.22705 15.4783 3.3698 16.3972 3.61961C17.2002 3.84265 17.7176 4.36011 17.9407 5.16306Z" fill="white"/>
</svg>
